<mxfile host="app.diagrams.net" agent="Mozilla/5.0 (Windows NT 10.0; Win64; x64) AppleWebKit/537.36 (KHTML, like Gecko) Chrome/132.0.0.0 Safari/537.36" version="26.0.14">
  <diagram name="Page-1" id="F13Jd97T5v3C7AuD_D76">
    <mxGraphModel dx="3686" dy="1991" grid="0" gridSize="10" guides="1" tooltips="1" connect="1" arrows="1" fold="1" page="0" pageScale="1" pageWidth="827" pageHeight="1169" math="0" shadow="0">
      <root>
        <mxCell id="0" />
        <mxCell id="1" parent="0" />
        <mxCell id="seMniXO0PVON4g9_i5uN-2" value="Start" style="rounded=1;whiteSpace=wrap;arcSize=50;strokeWidth=1;fontSize=20;fillColor=#d5e8d4;gradientColor=#97d077;strokeColor=#82b366;" vertex="1" parent="1">
          <mxGeometry x="973" y="-32" width="188" height="81" as="geometry" />
        </mxCell>
        <mxCell id="seMniXO0PVON4g9_i5uN-3" value="Load FilePaths.txt file" style="rhombus;strokeWidth=1;whiteSpace=wrap;fontSize=20;fillColor=#cce5ff;strokeColor=#36393d;" vertex="1" parent="1">
          <mxGeometry x="950" y="109" width="234" height="234" as="geometry" />
        </mxCell>
        <mxCell id="seMniXO0PVON4g9_i5uN-4" value="Validate Paths" style="rhombus;strokeWidth=1;whiteSpace=wrap;fontSize=20;fillColor=#cce5ff;strokeColor=#36393d;" vertex="1" parent="1">
          <mxGeometry x="1092" y="416" width="223" height="223" as="geometry" />
        </mxCell>
        <mxCell id="seMniXO0PVON4g9_i5uN-5" value="Log Error to ERROR.txt" style="whiteSpace=wrap;strokeWidth=1;fontSize=20;fillColor=#f8cecc;strokeColor=#b85450;" vertex="1" parent="1">
          <mxGeometry x="20" y="2394" width="250" height="75" as="geometry" />
        </mxCell>
        <mxCell id="seMniXO0PVON4g9_i5uN-6" value="End" style="rounded=1;whiteSpace=wrap;arcSize=50;strokeWidth=1;fontSize=20;fillColor=#d5e8d4;gradientColor=#97d077;strokeColor=#82b366;" vertex="1" parent="1">
          <mxGeometry x="1919" y="2837" width="157" height="71" as="geometry" />
        </mxCell>
        <mxCell id="seMniXO0PVON4g9_i5uN-7" value="Create Output&#xa;Â Directories" style="rhombus;strokeWidth=1;whiteSpace=wrap;fontSize=20;fillColor=#cce5ff;strokeColor=#36393d;" vertex="1" parent="1">
          <mxGeometry x="1230" y="711" width="240" height="240" as="geometry" />
        </mxCell>
        <mxCell id="seMniXO0PVON4g9_i5uN-8" value="Log Missing Paths Error" style="whiteSpace=wrap;strokeWidth=1;fontSize=20;fillColor=#f8cecc;strokeColor=#b85450;" vertex="1" parent="1">
          <mxGeometry x="294" y="2398" width="250" height="75" as="geometry" />
        </mxCell>
        <mxCell id="seMniXO0PVON4g9_i5uN-9" value="Fetch OIM and Target Files" style="whiteSpace=wrap;strokeWidth=1;fontSize=20;" vertex="1" parent="1">
          <mxGeometry x="1498.5" y="1019" width="250" height="75" as="geometry" />
        </mxCell>
        <mxCell id="seMniXO0PVON4g9_i5uN-10" value="Log Directory Creation Error" style="whiteSpace=wrap;strokeWidth=1;fontSize=20;fillColor=#f8cecc;strokeColor=#b85450;" vertex="1" parent="1">
          <mxGeometry x="567" y="2395" width="250" height="75" as="geometry" />
        </mxCell>
        <mxCell id="seMniXO0PVON4g9_i5uN-11" value="Check Found Files" style="rhombus;strokeWidth=1;whiteSpace=wrap;fontSize=20;fillColor=#cce5ff;strokeColor=#36393d;" vertex="1" parent="1">
          <mxGeometry x="1520" y="1133" width="207" height="226" as="geometry" />
        </mxCell>
        <mxCell id="seMniXO0PVON4g9_i5uN-12" value="Log No Files Error" style="whiteSpace=wrap;strokeWidth=1;fontSize=20;fillColor=#f8cecc;strokeColor=#b85450;" vertex="1" parent="1">
          <mxGeometry x="868" y="1632" width="250" height="75" as="geometry" />
        </mxCell>
        <mxCell id="seMniXO0PVON4g9_i5uN-13" value="Create Blank CSV Report" style="whiteSpace=wrap;strokeWidth=1;fontSize=20;fillColor=#fff2cc;strokeColor=#d6b656;" vertex="1" parent="1">
          <mxGeometry x="868" y="2056.5" width="250" height="75" as="geometry" />
        </mxCell>
        <mxCell id="seMniXO0PVON4g9_i5uN-14" value="Process OIM File Only" style="whiteSpace=wrap;strokeWidth=1;fontSize=20;" vertex="1" parent="1">
          <mxGeometry x="1258" y="1625" width="250" height="75" as="geometry" />
        </mxCell>
        <mxCell id="seMniXO0PVON4g9_i5uN-15" value="Copy OIM to Input Folder" style="whiteSpace=wrap;strokeWidth=1;fontSize=20;" vertex="1" parent="1">
          <mxGeometry x="1256" y="1803.5" width="252" height="75" as="geometry" />
        </mxCell>
        <mxCell id="seMniXO0PVON4g9_i5uN-16" value="Create Blank CSV Report" style="whiteSpace=wrap;strokeWidth=1;fontSize=20;fillColor=#fff2cc;strokeColor=#d6b656;" vertex="1" parent="1">
          <mxGeometry x="1141" y="2056.5" width="250" height="75" as="geometry" />
        </mxCell>
        <mxCell id="seMniXO0PVON4g9_i5uN-17" value="Log Copy Error" style="whiteSpace=wrap;strokeWidth=1;fontSize=20;fillColor=#f8cecc;strokeColor=#b85450;" vertex="1" parent="1">
          <mxGeometry x="1391" y="2407" width="250" height="75" as="geometry" />
        </mxCell>
        <mxCell id="seMniXO0PVON4g9_i5uN-18" value="Process Target Files Only" style="whiteSpace=wrap;strokeWidth=1;fontSize=20;" vertex="1" parent="1">
          <mxGeometry x="1755.5" y="1629" width="250" height="75" as="geometry" />
        </mxCell>
        <mxCell id="seMniXO0PVON4g9_i5uN-19" value="Copy Target Files to Input Folder" style="whiteSpace=wrap;strokeWidth=1;fontSize=20;" vertex="1" parent="1">
          <mxGeometry x="1750.5" y="1802" width="260" height="78" as="geometry" />
        </mxCell>
        <mxCell id="seMniXO0PVON4g9_i5uN-20" value="Create Target-only Report" style="whiteSpace=wrap;strokeWidth=1;fontSize=20;fillColor=#fff2cc;strokeColor=#d6b656;" vertex="1" parent="1">
          <mxGeometry x="1661" y="2060" width="250" height="75" as="geometry" />
        </mxCell>
        <mxCell id="seMniXO0PVON4g9_i5uN-21" value="Log Copy Error" style="whiteSpace=wrap;strokeWidth=1;fontSize=20;fillColor=#f8cecc;strokeColor=#b85450;" vertex="1" parent="1">
          <mxGeometry x="1887" y="2404" width="230" height="75" as="geometry" />
        </mxCell>
        <mxCell id="seMniXO0PVON4g9_i5uN-22" value="Process Both Files" style="whiteSpace=wrap;strokeWidth=1;fontSize=20;" vertex="1" parent="1">
          <mxGeometry x="2536" y="1383" width="188" height="54" as="geometry" />
        </mxCell>
        <mxCell id="seMniXO0PVON4g9_i5uN-23" value="Copy All Files to Input Folder" style="whiteSpace=wrap;strokeWidth=1;fontSize=20;" vertex="1" parent="1">
          <mxGeometry x="2500" y="1509" width="260" height="78" as="geometry" />
        </mxCell>
        <mxCell id="seMniXO0PVON4g9_i5uN-24" value="Read OIM Data" style="rhombus;strokeWidth=1;whiteSpace=wrap;fontSize=20;fillColor=#cce5ff;strokeColor=#36393d;" vertex="1" parent="1">
          <mxGeometry x="2672" y="1660" width="158" height="158" as="geometry" />
        </mxCell>
        <mxCell id="seMniXO0PVON4g9_i5uN-25" value="Log Copy Error" style="whiteSpace=wrap;strokeWidth=1;fontSize=20;fillColor=#f8cecc;strokeColor=#b85450;" vertex="1" parent="1">
          <mxGeometry x="2133" y="2404" width="230" height="75" as="geometry" />
        </mxCell>
        <mxCell id="seMniXO0PVON4g9_i5uN-26" value="Process Target Files" style="whiteSpace=wrap;strokeWidth=1;fontSize=20;" vertex="1" parent="1">
          <mxGeometry x="2759" y="1888" width="250" height="75" as="geometry" />
        </mxCell>
        <mxCell id="seMniXO0PVON4g9_i5uN-27" value="Log OIM Reading Error" style="whiteSpace=wrap;strokeWidth=1;fontSize=20;fillColor=#f8cecc;strokeColor=#b85450;" vertex="1" parent="1">
          <mxGeometry x="2383" y="2404" width="230" height="75" as="geometry" />
        </mxCell>
        <mxCell id="seMniXO0PVON4g9_i5uN-28" value="Compare Data" style="rhombus;strokeWidth=1;whiteSpace=wrap;fontSize=20;fillColor=#cce5ff;strokeColor=#36393d;" vertex="1" parent="1">
          <mxGeometry x="2806" y="2016" width="156" height="156" as="geometry" />
        </mxCell>
        <mxCell id="seMniXO0PVON4g9_i5uN-29" value="Write Comparison Report&#xa;into the Output Folder" style="whiteSpace=wrap;strokeWidth=1;fontSize=20;fillColor=#d5e8d4;strokeColor=#82b366;" vertex="1" parent="1">
          <mxGeometry x="2860" y="2227" width="250" height="75" as="geometry" />
        </mxCell>
        <mxCell id="seMniXO0PVON4g9_i5uN-30" value="Log Comparison Error" style="whiteSpace=wrap;strokeWidth=1;fontSize=20;fillColor=#f8cecc;strokeColor=#b85450;" vertex="1" parent="1">
          <mxGeometry x="2625" y="2401" width="230" height="75" as="geometry" />
        </mxCell>
        <mxCell id="seMniXO0PVON4g9_i5uN-31" value="Log Write Error" style="whiteSpace=wrap;strokeWidth=1;fontSize=20;fillColor=#f8cecc;strokeColor=#b85450;" vertex="1" parent="1">
          <mxGeometry x="3020" y="2398" width="230" height="75" as="geometry" />
        </mxCell>
        <mxCell id="seMniXO0PVON4g9_i5uN-32" value="" style="curved=1;startArrow=none;endArrow=block;exitX=0.5;exitY=1;entryX=0.5;entryY=0;rounded=0;strokeWidth=1;fontSize=20;" edge="1" parent="1" source="seMniXO0PVON4g9_i5uN-2" target="seMniXO0PVON4g9_i5uN-3">
          <mxGeometry relative="1" as="geometry">
            <Array as="points" />
          </mxGeometry>
        </mxCell>
        <mxCell id="seMniXO0PVON4g9_i5uN-33" value="Success" style="curved=1;startArrow=none;endArrow=block;exitX=0.95;exitY=1;entryX=0.5;entryY=0;rounded=0;strokeWidth=1;fontSize=20;" edge="1" parent="1" source="seMniXO0PVON4g9_i5uN-3" target="seMniXO0PVON4g9_i5uN-4">
          <mxGeometry relative="1" as="geometry">
            <Array as="points">
              <mxPoint x="1204" y="379" />
            </Array>
          </mxGeometry>
        </mxCell>
        <mxCell id="seMniXO0PVON4g9_i5uN-34" value="Failure" style="curved=1;startArrow=none;endArrow=block;exitX=0;exitY=0.58;entryX=0.5;entryY=-0.01;rounded=0;strokeWidth=1;fontSize=20;" edge="1" parent="1" source="seMniXO0PVON4g9_i5uN-3" target="seMniXO0PVON4g9_i5uN-5">
          <mxGeometry x="-0.922" y="15" relative="1" as="geometry">
            <Array as="points">
              <mxPoint x="132" y="379" />
            </Array>
            <mxPoint x="-1" as="offset" />
          </mxGeometry>
        </mxCell>
        <mxCell id="seMniXO0PVON4g9_i5uN-35" value="" style="curved=1;startArrow=none;endArrow=block;exitX=0.5;exitY=0.99;entryX=0;entryY=0.46;rounded=0;strokeWidth=1;fontSize=20;" edge="1" parent="1" source="seMniXO0PVON4g9_i5uN-5" target="seMniXO0PVON4g9_i5uN-6">
          <mxGeometry relative="1" as="geometry">
            <Array as="points">
              <mxPoint x="132" y="2498" />
            </Array>
          </mxGeometry>
        </mxCell>
        <mxCell id="seMniXO0PVON4g9_i5uN-36" value="Valid" style="curved=1;startArrow=none;endArrow=block;exitX=1;exitY=1;entryX=0.5;entryY=0;rounded=0;strokeWidth=1;fontSize=20;fillColor=#cce5ff;strokeColor=#36393d;" edge="1" parent="1" source="seMniXO0PVON4g9_i5uN-4" target="seMniXO0PVON4g9_i5uN-7">
          <mxGeometry relative="1" as="geometry">
            <Array as="points">
              <mxPoint x="1350" y="675" />
            </Array>
          </mxGeometry>
        </mxCell>
        <mxCell id="seMniXO0PVON4g9_i5uN-37" value="Invalid" style="curved=1;startArrow=none;endArrow=block;exitX=0;exitY=0.59;entryX=0.5;entryY=-0.01;rounded=0;strokeWidth=1;fontSize=20;" edge="1" parent="1" source="seMniXO0PVON4g9_i5uN-4" target="seMniXO0PVON4g9_i5uN-8">
          <mxGeometry x="-0.9167" y="12" relative="1" as="geometry">
            <Array as="points">
              <mxPoint x="405" y="675" />
            </Array>
            <mxPoint x="1" as="offset" />
          </mxGeometry>
        </mxCell>
        <mxCell id="seMniXO0PVON4g9_i5uN-38" value="" style="curved=1;startArrow=none;endArrow=block;exitX=0.5;exitY=0.99;entryX=0;entryY=0.45;rounded=0;strokeWidth=1;fontSize=20;" edge="1" parent="1" source="seMniXO0PVON4g9_i5uN-8" target="seMniXO0PVON4g9_i5uN-6">
          <mxGeometry relative="1" as="geometry">
            <Array as="points">
              <mxPoint x="405" y="2498" />
            </Array>
          </mxGeometry>
        </mxCell>
        <mxCell id="seMniXO0PVON4g9_i5uN-39" value="Success" style="curved=1;startArrow=none;endArrow=block;exitX=1;exitY=0.79;entryX=0.5;entryY=-0.01;rounded=0;strokeWidth=1;fontSize=20;" edge="1" parent="1" source="seMniXO0PVON4g9_i5uN-7" target="seMniXO0PVON4g9_i5uN-9">
          <mxGeometry relative="1" as="geometry">
            <Array as="points">
              <mxPoint x="1624" y="987" />
            </Array>
          </mxGeometry>
        </mxCell>
        <mxCell id="seMniXO0PVON4g9_i5uN-40" value="Failure" style="curved=1;startArrow=none;endArrow=block;exitX=0;exitY=0.62;entryX=0.5;entryY=0;rounded=0;strokeWidth=1;fontSize=21;" edge="1" parent="1" source="seMniXO0PVON4g9_i5uN-7" target="seMniXO0PVON4g9_i5uN-10">
          <mxGeometry x="-0.8863" y="10" relative="1" as="geometry">
            <Array as="points">
              <mxPoint x="697" y="987" />
            </Array>
            <mxPoint x="-1" as="offset" />
          </mxGeometry>
        </mxCell>
        <mxCell id="seMniXO0PVON4g9_i5uN-41" value="" style="curved=1;startArrow=none;endArrow=block;exitX=0.5;exitY=1;rounded=0;strokeWidth=1;fontSize=20;" edge="1" parent="1" source="seMniXO0PVON4g9_i5uN-10">
          <mxGeometry relative="1" as="geometry">
            <Array as="points">
              <mxPoint x="697" y="2498" />
            </Array>
            <mxPoint x="1914" y="2873" as="targetPoint" />
          </mxGeometry>
        </mxCell>
        <mxCell id="seMniXO0PVON4g9_i5uN-42" value="" style="curved=1;startArrow=none;endArrow=block;exitX=0.5;exitY=0.99;entryX=0.5;entryY=0;rounded=0;strokeWidth=1;fontSize=20;" edge="1" parent="1" source="seMniXO0PVON4g9_i5uN-9" target="seMniXO0PVON4g9_i5uN-11">
          <mxGeometry relative="1" as="geometry">
            <Array as="points" />
          </mxGeometry>
        </mxCell>
        <mxCell id="seMniXO0PVON4g9_i5uN-43" value="No Files Found" style="curved=1;startArrow=none;endArrow=block;exitX=0;exitY=0.6;entryX=0.5;entryY=0;rounded=0;strokeWidth=1;fontSize=20;entryDx=0;entryDy=0;" edge="1" parent="1" target="seMniXO0PVON4g9_i5uN-12">
          <mxGeometry x="-0.4257" y="16" relative="1" as="geometry">
            <Array as="points">
              <mxPoint x="979.88" y="1347" />
            </Array>
            <mxPoint x="1538.13" y="1264.8333333333335" as="sourcePoint" />
            <mxPoint x="1027.8800000000006" y="1629.0000000000005" as="targetPoint" />
            <mxPoint as="offset" />
          </mxGeometry>
        </mxCell>
        <mxCell id="seMniXO0PVON4g9_i5uN-44" value="" style="curved=1;startArrow=none;endArrow=block;exitX=0.5;exitY=1.01;entryX=0.5;entryY=0;rounded=0;strokeWidth=1;fontSize=20;entryDx=0;entryDy=0;" edge="1" parent="1" source="seMniXO0PVON4g9_i5uN-12" target="seMniXO0PVON4g9_i5uN-13">
          <mxGeometry relative="1" as="geometry">
            <Array as="points" />
          </mxGeometry>
        </mxCell>
        <mxCell id="seMniXO0PVON4g9_i5uN-45" value="" style="curved=1;startArrow=none;endArrow=block;rounded=0;strokeWidth=1;fontSize=20;" edge="1" parent="1">
          <mxGeometry relative="1" as="geometry">
            <Array as="points">
              <mxPoint x="996" y="2279" />
              <mxPoint x="996" y="2519" />
            </Array>
            <mxPoint x="996" y="2135" as="sourcePoint" />
            <mxPoint x="1921" y="2871" as="targetPoint" />
          </mxGeometry>
        </mxCell>
        <mxCell id="seMniXO0PVON4g9_i5uN-46" value="Only OIM File" style="curved=1;startArrow=none;endArrow=block;exitX=0;exitY=0.75;entryX=0.5;entryY=0;rounded=0;strokeWidth=1;fontSize=20;" edge="1" parent="1" source="seMniXO0PVON4g9_i5uN-11" target="seMniXO0PVON4g9_i5uN-14">
          <mxGeometry x="-0.5216" y="41" relative="1" as="geometry">
            <Array as="points">
              <mxPoint x="1368" y="1347" />
            </Array>
            <mxPoint as="offset" />
          </mxGeometry>
        </mxCell>
        <mxCell id="seMniXO0PVON4g9_i5uN-47" value="" style="curved=1;startArrow=none;endArrow=block;exitX=0.5;exitY=1;entryX=0.5;entryY=0.01;rounded=0;strokeWidth=1;fontSize=20;" edge="1" parent="1" source="seMniXO0PVON4g9_i5uN-14" target="seMniXO0PVON4g9_i5uN-15">
          <mxGeometry relative="1" as="geometry">
            <Array as="points" />
          </mxGeometry>
        </mxCell>
        <mxCell id="seMniXO0PVON4g9_i5uN-49" value="Failure" style="curved=1;startArrow=none;endArrow=block;exitX=0.68;exitY=1.01;entryX=0.5;entryY=-0.01;rounded=0;strokeWidth=1;fontSize=20;" edge="1" parent="1" source="seMniXO0PVON4g9_i5uN-15" target="seMniXO0PVON4g9_i5uN-17">
          <mxGeometry relative="1" as="geometry">
            <Array as="points">
              <mxPoint x="1515" y="2093" />
              <mxPoint x="1558" y="2341" />
            </Array>
          </mxGeometry>
        </mxCell>
        <mxCell id="seMniXO0PVON4g9_i5uN-50" value="" style="curved=1;startArrow=none;endArrow=block;exitX=0.5;exitY=0.99;entryX=0;entryY=0.36;rounded=0;strokeWidth=1;fontSize=20;" edge="1" parent="1" source="seMniXO0PVON4g9_i5uN-17" target="seMniXO0PVON4g9_i5uN-6">
          <mxGeometry relative="1" as="geometry">
            <Array as="points">
              <mxPoint x="1491" y="2498" />
            </Array>
          </mxGeometry>
        </mxCell>
        <mxCell id="seMniXO0PVON4g9_i5uN-51" value="Only Target Files" style="curved=1;startArrow=none;endArrow=block;exitX=1;exitY=0.75;entryX=0.5;entryY=0;rounded=0;strokeWidth=1;fontSize=20;" edge="1" parent="1" source="seMniXO0PVON4g9_i5uN-11" target="seMniXO0PVON4g9_i5uN-18">
          <mxGeometry x="-0.4135" y="-45" relative="1" as="geometry">
            <Array as="points">
              <mxPoint x="1874" y="1347" />
            </Array>
            <mxPoint x="-1" as="offset" />
          </mxGeometry>
        </mxCell>
        <mxCell id="seMniXO0PVON4g9_i5uN-52" value="" style="curved=1;startArrow=none;endArrow=block;exitX=0.5;exitY=1;entryX=0.5;entryY=0;rounded=0;strokeWidth=1;fontSize=20;" edge="1" parent="1" source="seMniXO0PVON4g9_i5uN-18" target="seMniXO0PVON4g9_i5uN-19">
          <mxGeometry relative="1" as="geometry">
            <Array as="points" />
          </mxGeometry>
        </mxCell>
        <mxCell id="seMniXO0PVON4g9_i5uN-54" value="Failure" style="curved=1;startArrow=none;endArrow=block;exitX=0.643;exitY=0.946;entryX=0.5;entryY=-0.01;rounded=0;strokeWidth=1;fontSize=20;exitDx=0;exitDy=0;exitPerimeter=0;" edge="1" parent="1" source="seMniXO0PVON4g9_i5uN-19" target="seMniXO0PVON4g9_i5uN-21">
          <mxGeometry relative="1" as="geometry">
            <Array as="points">
              <mxPoint x="2011" y="2110" />
              <mxPoint x="2002" y="2358" />
            </Array>
          </mxGeometry>
        </mxCell>
        <mxCell id="seMniXO0PVON4g9_i5uN-55" value="" style="curved=1;startArrow=none;endArrow=block;exitX=0.5;exitY=0.99;entryX=0.5;entryY=-0.01;rounded=0;strokeWidth=1;fontSize=20;" edge="1" parent="1" source="seMniXO0PVON4g9_i5uN-21" target="seMniXO0PVON4g9_i5uN-6">
          <mxGeometry relative="1" as="geometry">
            <Array as="points" />
          </mxGeometry>
        </mxCell>
        <mxCell id="seMniXO0PVON4g9_i5uN-56" value="Both Files Present" style="curved=1;startArrow=none;endArrow=block;exitX=1;exitY=0.56;entryX=0.5;entryY=0;rounded=0;strokeWidth=1;fontSize=20;" edge="1" parent="1" source="seMniXO0PVON4g9_i5uN-11" target="seMniXO0PVON4g9_i5uN-22">
          <mxGeometry x="-0.433" y="18" relative="1" as="geometry">
            <Array as="points">
              <mxPoint x="2630" y="1347" />
            </Array>
            <mxPoint x="1" as="offset" />
          </mxGeometry>
        </mxCell>
        <mxCell id="seMniXO0PVON4g9_i5uN-57" value="" style="curved=1;startArrow=none;endArrow=block;exitX=0.5;exitY=1;entryX=0.5;entryY=0;rounded=0;strokeWidth=1;fontSize=20;" edge="1" parent="1" source="seMniXO0PVON4g9_i5uN-22" target="seMniXO0PVON4g9_i5uN-23">
          <mxGeometry relative="1" as="geometry">
            <Array as="points" />
          </mxGeometry>
        </mxCell>
        <mxCell id="seMniXO0PVON4g9_i5uN-58" value="Success" style="curved=1;startArrow=none;endArrow=block;exitX=0.74;exitY=1;entryX=0.5;entryY=0;rounded=0;strokeWidth=1;fontSize=20;" edge="1" parent="1" source="seMniXO0PVON4g9_i5uN-23" target="seMniXO0PVON4g9_i5uN-24">
          <mxGeometry relative="1" as="geometry">
            <Array as="points">
              <mxPoint x="2751" y="1623" />
            </Array>
          </mxGeometry>
        </mxCell>
        <mxCell id="seMniXO0PVON4g9_i5uN-59" value="Failure" style="curved=1;startArrow=none;endArrow=block;exitX=0;exitY=0.81;entryX=0.5;entryY=-0.01;rounded=0;strokeWidth=1;fontSize=20;" edge="1" parent="1" source="seMniXO0PVON4g9_i5uN-23" target="seMniXO0PVON4g9_i5uN-25">
          <mxGeometry relative="1" as="geometry">
            <Array as="points">
              <mxPoint x="2217" y="1623" />
            </Array>
          </mxGeometry>
        </mxCell>
        <mxCell id="seMniXO0PVON4g9_i5uN-60" value="" style="curved=1;startArrow=none;endArrow=block;exitX=0.5;exitY=0.99;entryX=0.99;entryY=0.19;rounded=0;strokeWidth=1;fontSize=20;" edge="1" parent="1" source="seMniXO0PVON4g9_i5uN-25" target="seMniXO0PVON4g9_i5uN-6">
          <mxGeometry relative="1" as="geometry">
            <Array as="points">
              <mxPoint x="2217" y="2498" />
            </Array>
          </mxGeometry>
        </mxCell>
        <mxCell id="seMniXO0PVON4g9_i5uN-61" value="Success" style="curved=1;startArrow=none;endArrow=block;exitX=1;exitY=0.93;entryX=0.5;entryY=0;rounded=0;strokeWidth=1;fontSize=20;" edge="1" parent="1" source="seMniXO0PVON4g9_i5uN-24" target="seMniXO0PVON4g9_i5uN-26">
          <mxGeometry relative="1" as="geometry">
            <Array as="points">
              <mxPoint x="2884" y="1854" />
            </Array>
          </mxGeometry>
        </mxCell>
        <mxCell id="seMniXO0PVON4g9_i5uN-62" value="Failure" style="curved=1;startArrow=none;endArrow=block;exitX=0;exitY=0.69;entryX=0.5;entryY=-0.01;rounded=0;strokeWidth=1;fontSize=20;" edge="1" parent="1" source="seMniXO0PVON4g9_i5uN-24" target="seMniXO0PVON4g9_i5uN-27">
          <mxGeometry relative="1" as="geometry">
            <Array as="points">
              <mxPoint x="2459" y="1854" />
            </Array>
          </mxGeometry>
        </mxCell>
        <mxCell id="seMniXO0PVON4g9_i5uN-63" value="" style="curved=1;startArrow=none;endArrow=block;exitX=0.5;exitY=0.99;entryX=0.99;entryY=0.35;rounded=0;strokeWidth=1;fontSize=20;" edge="1" parent="1" source="seMniXO0PVON4g9_i5uN-27" target="seMniXO0PVON4g9_i5uN-6">
          <mxGeometry relative="1" as="geometry">
            <Array as="points">
              <mxPoint x="2459" y="2498" />
            </Array>
          </mxGeometry>
        </mxCell>
        <mxCell id="seMniXO0PVON4g9_i5uN-64" value="" style="curved=1;startArrow=none;endArrow=block;exitX=0.5;exitY=1;entryX=0.5;entryY=0;rounded=0;strokeWidth=1;fontSize=20;" edge="1" parent="1" source="seMniXO0PVON4g9_i5uN-26" target="seMniXO0PVON4g9_i5uN-28">
          <mxGeometry relative="1" as="geometry">
            <Array as="points" />
          </mxGeometry>
        </mxCell>
        <mxCell id="seMniXO0PVON4g9_i5uN-65" value="Success" style="curved=1;startArrow=none;endArrow=block;exitX=0.9;exitY=1;entryX=0.5;entryY=0.01;rounded=0;strokeWidth=1;fontSize=20;" edge="1" parent="1" source="seMniXO0PVON4g9_i5uN-28" target="seMniXO0PVON4g9_i5uN-29">
          <mxGeometry relative="1" as="geometry">
            <Array as="points">
              <mxPoint x="2974" y="2208" />
            </Array>
          </mxGeometry>
        </mxCell>
        <mxCell id="seMniXO0PVON4g9_i5uN-66" value="Failure" style="curved=1;startArrow=none;endArrow=block;exitX=0;exitY=0.86;entryX=0.5;entryY=-0.01;rounded=0;strokeWidth=1;fontSize=20;" edge="1" parent="1" source="seMniXO0PVON4g9_i5uN-28" target="seMniXO0PVON4g9_i5uN-30">
          <mxGeometry relative="1" as="geometry">
            <Array as="points">
              <mxPoint x="2724" y="2208" />
            </Array>
          </mxGeometry>
        </mxCell>
        <mxCell id="seMniXO0PVON4g9_i5uN-67" value="" style="curved=1;startArrow=none;endArrow=block;exitX=0.5;exitY=0.99;entryX=0.99;entryY=0.4;rounded=0;strokeWidth=1;fontSize=20;" edge="1" parent="1" source="seMniXO0PVON4g9_i5uN-30" target="seMniXO0PVON4g9_i5uN-6">
          <mxGeometry relative="1" as="geometry">
            <Array as="points">
              <mxPoint x="2724" y="2498" />
            </Array>
          </mxGeometry>
        </mxCell>
        <mxCell id="seMniXO0PVON4g9_i5uN-68" value="Success" style="curved=1;startArrow=none;endArrow=block;exitX=0.39;exitY=1.01;entryX=0.99;entryY=0.42;rounded=0;strokeWidth=1;fontSize=20;" edge="1" parent="1" source="seMniXO0PVON4g9_i5uN-29" target="seMniXO0PVON4g9_i5uN-6">
          <mxGeometry x="-0.9034" y="9" relative="1" as="geometry">
            <Array as="points">
              <mxPoint x="2950" y="2375" />
              <mxPoint x="2933" y="2442" />
              <mxPoint x="2900" y="2498" />
            </Array>
            <mxPoint y="-1" as="offset" />
          </mxGeometry>
        </mxCell>
        <mxCell id="seMniXO0PVON4g9_i5uN-69" value="Failure" style="curved=1;startArrow=none;endArrow=block;exitX=0.61;exitY=1.01;entryX=0.5;entryY=-0.01;rounded=0;strokeWidth=1;fontSize=20;" edge="1" parent="1" source="seMniXO0PVON4g9_i5uN-29" target="seMniXO0PVON4g9_i5uN-31">
          <mxGeometry relative="1" as="geometry">
            <Array as="points">
              <mxPoint x="3054" y="2326" />
              <mxPoint x="3079" y="2347" />
            </Array>
          </mxGeometry>
        </mxCell>
        <mxCell id="seMniXO0PVON4g9_i5uN-70" value="" style="curved=1;startArrow=none;endArrow=block;exitX=0.5;exitY=0.99;entryX=0.99;entryY=0.43;rounded=0;strokeWidth=1;fontSize=20;" edge="1" parent="1" source="seMniXO0PVON4g9_i5uN-31" target="seMniXO0PVON4g9_i5uN-6">
          <mxGeometry relative="1" as="geometry">
            <Array as="points">
              <mxPoint x="3049" y="2498" />
            </Array>
          </mxGeometry>
        </mxCell>
        <mxCell id="seMniXO0PVON4g9_i5uN-72" value="" style="endArrow=classic;html=1;rounded=0;exitX=0.5;exitY=1;exitDx=0;exitDy=0;entryX=0.5;entryY=0;entryDx=0;entryDy=0;curved=1;" edge="1" parent="1" source="seMniXO0PVON4g9_i5uN-15" target="seMniXO0PVON4g9_i5uN-16">
          <mxGeometry relative="1" as="geometry">
            <mxPoint x="1612" y="2163" as="sourcePoint" />
            <mxPoint x="1712" y="2163" as="targetPoint" />
            <Array as="points">
              <mxPoint x="1294" y="1926" />
              <mxPoint x="1259" y="1993" />
            </Array>
          </mxGeometry>
        </mxCell>
        <mxCell id="seMniXO0PVON4g9_i5uN-73" value="Success" style="edgeLabel;resizable=0;html=1;;align=center;verticalAlign=middle;fontSize=20;" connectable="0" vertex="1" parent="seMniXO0PVON4g9_i5uN-72">
          <mxGeometry relative="1" as="geometry" />
        </mxCell>
        <mxCell id="seMniXO0PVON4g9_i5uN-79" value="" style="endArrow=classic;html=1;rounded=0;entryX=0.459;entryY=0.024;entryDx=0;entryDy=0;entryPerimeter=0;exitX=0.391;exitY=0.979;exitDx=0;exitDy=0;exitPerimeter=0;curved=1;" edge="1" parent="1">
          <mxGeometry relative="1" as="geometry">
            <mxPoint x="1857.4100000000008" y="1880.0020000000002" as="sourcePoint" />
            <mxPoint x="1781" y="2063.44" as="targetPoint" />
            <Array as="points">
              <mxPoint x="1777" y="1956" />
            </Array>
          </mxGeometry>
        </mxCell>
        <mxCell id="seMniXO0PVON4g9_i5uN-80" value="&lt;font style=&quot;font-size: 20px;&quot;&gt;Success&lt;/font&gt;" style="edgeLabel;resizable=0;html=1;;align=center;verticalAlign=middle;" connectable="0" vertex="1" parent="seMniXO0PVON4g9_i5uN-79">
          <mxGeometry relative="1" as="geometry" />
        </mxCell>
      </root>
    </mxGraphModel>
  </diagram>
</mxfile>
